<?xml version="1.0" encoding="UTF-8" standalone="no"?>
<svg
   fill="none"
   height="79.960899"
   viewBox="0 0 79.961197 79.960899"
   width="79.961197"
   version="1.1"
   id="svg194"
   sodipodi:docname="AllureReport.svg"
   inkscape:version="1.2 (dc2aeda, 2022-05-15)"
   xmlns:inkscape="http://www.inkscape.org/namespaces/inkscape"
   xmlns:sodipodi="http://sodipodi.sourceforge.net/DTD/sodipodi-0.dtd"
   xmlns:xlink="http://www.w3.org/1999/xlink"
   xmlns="http://www.w3.org/2000/svg"
   xmlns:svg="http://www.w3.org/2000/svg">
  <defs
     id="defs198">
    <linearGradient
       inkscape:collect="always"
       xlink:href="#a"
       id="linearGradient352"
       gradientUnits="userSpaceOnUse"
       x1="66"
       y1="24"
       x2="72"
       y2="37.5" />
    <linearGradient
       inkscape:collect="always"
       xlink:href="#a"
       id="linearGradient354"
       gradientUnits="userSpaceOnUse"
       x1="66"
       y1="24"
       x2="72"
       y2="37.5" />
  </defs>
  <sodipodi:namedview
     id="namedview196"
     pagecolor="#ffffff"
     bordercolor="#000000"
     borderopacity="0.25"
     inkscape:showpageshadow="2"
     inkscape:pageopacity="0.0"
     inkscape:pagecheckerboard="0"
     inkscape:deskcolor="#d1d1d1"
     showgrid="false"
     inkscape:zoom="5.9333333"
     inkscape:cx="33.286517"
     inkscape:cy="14.241573"
     inkscape:window-width="1390"
     inkscape:window-height="1027"
     inkscape:window-x="0"
     inkscape:window-y="25"
     inkscape:window-maximized="0"
     inkscape:current-layer="svg194" />
  <linearGradient
     id="a"
     gradientUnits="userSpaceOnUse"
     x1="66"
     x2="72"
     y1="24"
     y2="37.5">
    <stop
       offset="0"
       stop-color="#7e22ce"
       id="stop117" />
    <stop
       offset="1"
       stop-color="#8b5cf6"
       id="stop119" />
  </linearGradient>
  <linearGradient
     id="b"
     gradientUnits="userSpaceOnUse"
     x1="67"
     x2="44.5"
     y1="23.5"
     y2="9">
    <stop
       offset="0"
       stop-color="#ef4444"
       id="stop122" />
    <stop
       offset="1"
       stop-color="#dc2626"
       id="stop124" />
  </linearGradient>
  <linearGradient
     id="c"
     gradientUnits="userSpaceOnUse"
     x1="9"
     x2="13.5"
     y1="35"
     y2="62">
    <stop
       offset="0"
       stop-color="#22c55e"
       id="stop127" />
    <stop
       offset="1"
       stop-color="#15803d"
       id="stop129" />
  </linearGradient>
  <linearGradient
     id="d"
     gradientUnits="userSpaceOnUse"
     x1="12"
     x2="36"
     y1="55.5"
     y2="73">
    <stop
       offset="0"
       stop-color="#94a3b8"
       id="stop132" />
    <stop
       offset=".958345"
       stop-color="#64748b"
       id="stop134" />
    <stop
       offset="1"
       stop-color="#64748b"
       id="stop136" />
  </linearGradient>
  <linearGradient
     id="e"
     gradientUnits="userSpaceOnUse"
     x1="71"
     x2="55.470699"
     y1="55.431499"
     y2="70.960899">
    <stop
       offset="0"
       stop-color="#d97706"
       id="stop139" />
    <stop
       offset="1"
       stop-color="#fbbf24"
       id="stop141" />
  </linearGradient>
  <linearGradient
     id="f"
     gradientUnits="userSpaceOnUse"
     x1="73"
     x2="76.5634"
     y1="136"
     y2="135.64">
    <stop
       offset="0"
       stop-color="#fbbf24"
       id="stop144" />
    <stop
       offset="1"
       stop-color="#fbbf24"
       id="stop146" />
  </linearGradient>
  <clipPath
     id="g">
    <path
       d="M 62,30 H 80 V 50 H 62 Z"
       id="path149" />
  </clipPath>
  <g
     clip-rule="evenodd"
     fill-rule="evenodd"
     id="g164">
    <path
       d="m 55.5795,11.6541 c 3.5389,-3.49043 9.2372,-3.45113 12.7276,0.0877 7.1369,7.2361 11.6541,17.214 11.6541,28.2386 0,4.9706 -4.0295,9 -9,9 -4.9706,0 -9,-4.0294 -9,-9 0,-6.0146 -2.4534,-11.5269 -6.4695,-15.5987 -3.4904,-3.5389 -3.4511,-9.2372 0.0878,-12.7276 z"
       fill="url(#a)"
       id="path152"
       style="fill:url(#linearGradient352)" />
    <path
       d="m 30.9805,9 c 0,-4.97056 4.0294,-9 9,-9 11.0246,0 21.0025,4.51718 28.2385,11.6541 3.5389,3.4904 3.5782,9.1887 0.0878,12.7276 -3.4904,3.5389 -9.1887,3.5782 -12.7276,0.0878 C 51.5073,20.4534 45.9951,18 39.9805,18 c -4.9706,0 -9,-4.0294 -9,-9 z"
       fill="url(#b)"
       id="path154"
       style="fill:url(#b)" />
    <path
       d="M 0,39.9804 C 0,17.8932 17.8932,0 39.9804,0 c 4.9706,0 9,4.02944 9,9 0,4.9706 -4.0294,9 -9,9 C 27.8343,18 18,27.8343 18,39.9804 c 0,6.0146 2.4534,11.5269 6.4695,15.5987 3.4904,3.5389 3.4511,9.2372 -0.0878,12.7276 -3.5389,3.4904 -9.2372,3.4511 -12.7276,-0.0878 C 4.51718,60.9829 0,51.005 0,39.9804 Z"
       fill="url(#c)"
       id="path156"
       style="fill:url(#c)" />
    <path
       d="m 11.6538,55.5792 c 3.4904,-3.5388 9.1888,-3.5781 12.7276,-0.0877 4.0719,4.016 9.5841,6.4694 15.5988,6.4694 4.9705,0 9,4.0295 9,9 0,4.9706 -4.0295,9 -9,9 -11.0247,0 -21.0026,-4.5171 -28.2386,-11.654 C 8.20273,64.8165 8.16343,59.1181 11.6538,55.5792 Z"
       fill="url(#d)"
       id="path158"
       style="fill:url(#d)" />
    <path
       d="m 70.9609,30.9805 c 4.9705,0 9,4.0294 9,9 0,22.0872 -17.8932,39.9804 -39.9804,39.9804 -4.9706,0 -9,-4.0295 -9,-9 0,-4.9706 4.0294,-9 9,-9 12.1461,0 21.9804,-9.8343 21.9804,-21.9804 0,-4.9706 4.0294,-9 9,-9 z"
       fill="url(#e)"
       id="path160"
       style="fill:url(#e)" />
    <path
       d="m 70.9609,30.9805 c 4.9706,0 9,4.0294 9,9 v 30.9804 c 0,4.9705 -4.0294,9 -9,9 -4.9705,0 -9,-4.0295 -9,-9 V 39.9805 c 0,-4.9706 4.0295,-9 9,-9 z"
       fill="url(#f)"
       id="path162"
       style="fill:url(#f)" />
  </g>
  <g
     clip-path="url(#g)"
     id="g168">
    <path
       clip-rule="evenodd"
       d="m 55.5795,11.6541 c 3.5389,-3.49043 9.2372,-3.45113 12.7276,0.0877 7.1369,7.2361 11.6541,17.214 11.6541,28.2386 0,4.9706 -4.0295,9 -9,9 -4.9706,0 -9,-4.0294 -9,-9 0,-6.0146 -2.4534,-11.5269 -6.4695,-15.5987 -3.4904,-3.5389 -3.4511,-9.2372 0.0878,-12.7276 z"
       fill="url(#a)"
       fill-rule="evenodd"
       id="path166"
       style="fill:url(#linearGradient354)" />
  </g>
</svg>
