<?xml version="1.0" encoding="UTF-8" standalone="no"?>
<svg
   aria-label="Gradle"
   role="img"
   viewBox="0 0 383.94077 282.0495"
   version="1.1"
   id="svg6"
   sodipodi:docname="Gradle.svg"
   width="383.94077"
   height="282.0495"
   inkscape:version="1.2 (dc2aeda, 2022-05-15)"
   xmlns:inkscape="http://www.inkscape.org/namespaces/inkscape"
   xmlns:sodipodi="http://sodipodi.sourceforge.net/DTD/sodipodi-0.dtd"
   xmlns="http://www.w3.org/2000/svg"
   xmlns:svg="http://www.w3.org/2000/svg">
  <defs
     id="defs10" />
  <sodipodi:namedview
     id="namedview8"
     pagecolor="#ffffff"
     bordercolor="#000000"
     borderopacity="0.25"
     inkscape:showpageshadow="2"
     inkscape:pageopacity="0.0"
     inkscape:pagecheckerboard="0"
     inkscape:deskcolor="#d1d1d1"
     showgrid="false"
     inkscape:zoom="1.7128906"
     inkscape:cx="191.78107"
     inkscape:cy="161.42304"
     inkscape:window-width="1390"
     inkscape:window-height="1027"
     inkscape:window-x="0"
     inkscape:window-y="25"
     inkscape:window-maximized="0"
     inkscape:current-layer="svg6" />
  <path
     d="m 363.00431,17.748028 a 61,61 0 0 0 -85,-1 6,6 0 0 0 0,9 l 7,8 a 6,6 0 0 0 8,1 35.089172,35.089172 0 0 1 46,53 c -48,48.000002 -113,-87 -259.000002,-17 a 20,20 0 0 0 -9,28 l 25,43.000002 a 20,20 0 0 0 27.000002,7 h 1 v 0 l 11,-6 a 257,257 0 0 0 35,-26 6,6 0 0 1 8,0 v 0 a 6,6 0 0 1 0,9 263,263 0 0 1 -37,28 v 0 l -11,6 a 31,31 0 0 1 -15,4 32,32 0 0 1 -28.000002,-16 l -25,-43.7 c -45,40 -73,95 -57.8699995,173.26 a 6,6 0 0 0 5.9999995,4.74 h 26.47 a 6,6 0 0 0 5.93,-5.3 40,40 0 0 1 78.620002,0 6,6 0 0 0 5.72,5.08 h 26.2 a 6,6 0 0 0 5.7,-5.1 40,40 0 0 1 78.6,0 6,6 0 0 0 5.7,5 h 26 a 6,6 0 0 0 5.8,-5.72 c 1,-37 10,-79 38.7,-100 98,-73 72,-136.000002 49.4,-158.300002 z m -100,110.000002 -19,-9 v 0 a 12,12 0 1 1 19,9 z"
     fill="#02303a"
     id="path4"
     style="fill:#389ec0;fill-opacity:1" />
</svg>
