<?xml version="1.0" encoding="UTF-8" standalone="no"?>
<svg
   viewBox="0 0 76.400002 76.400002"
   version="1.1"
   id="svg94"
   sodipodi:docname="IntelliJIDEA.svg"
   width="76.400002"
   height="76.400002"
   inkscape:version="1.2 (dc2aeda, 2022-05-15)"
   xmlns:inkscape="http://www.inkscape.org/namespaces/inkscape"
   xmlns:sodipodi="http://sodipodi.sourceforge.net/DTD/sodipodi-0.dtd"
   xmlns="http://www.w3.org/2000/svg"
   xmlns:svg="http://www.w3.org/2000/svg">
  <sodipodi:namedview
     id="namedview96"
     pagecolor="#ffffff"
     bordercolor="#000000"
     borderopacity="0.25"
     inkscape:showpageshadow="2"
     inkscape:pageopacity="0.0"
     inkscape:pagecheckerboard="0"
     inkscape:deskcolor="#d1d1d1"
     showgrid="false"
     inkscape:zoom="8.77"
     inkscape:cx="38.255416"
     inkscape:cy="38.369441"
     inkscape:window-width="1390"
     inkscape:window-height="1027"
     inkscape:window-x="0"
     inkscape:window-y="25"
     inkscape:window-maximized="0"
     inkscape:current-layer="svg94" />
  <defs
     id="defs74">
    <style
       id="style2">.a{fill:url(#a);}.b{fill:url(#b);}.c{fill:url(#c);}.d{fill:url(#d);}.e{fill:#fff;}</style>
    <linearGradient
       id="a"
       x1="12.68"
       y1="286.42999"
       x2="48.139999"
       y2="286.42999"
       gradientTransform="matrix(1,0,0,-1,0,342)"
       gradientUnits="userSpaceOnUse">
      <stop
         offset="0.26"
         stop-color="#f97a12"
         id="stop4" />
      <stop
         offset="0.46"
         stop-color="#b07b58"
         id="stop6" />
      <stop
         offset="0.72"
         stop-color="#577bae"
         id="stop8" />
      <stop
         offset="0.91"
         stop-color="#1e7ce5"
         id="stop10" />
      <stop
         offset="1"
         stop-color="#087cfa"
         id="stop12" />
    </linearGradient>
    <linearGradient
       id="b"
       x1="39.91"
       y1="303.01999"
       x2="98.459999"
       y2="270.62"
       gradientTransform="matrix(1,0,0,-1,0,342)"
       gradientUnits="userSpaceOnUse">
      <stop
         offset="0"
         stop-color="#f97a12"
         id="stop15" />
      <stop
         offset="0.07"
         stop-color="#cb7a3e"
         id="stop17" />
      <stop
         offset="0.15"
         stop-color="#9e7b6a"
         id="stop19" />
      <stop
         offset="0.24"
         stop-color="#757b91"
         id="stop21" />
      <stop
         offset="0.33"
         stop-color="#537bb1"
         id="stop23" />
      <stop
         offset="0.43"
         stop-color="#387ccc"
         id="stop25" />
      <stop
         offset="0.54"
         stop-color="#237ce0"
         id="stop27" />
      <stop
         offset="0.66"
         stop-color="#147cef"
         id="stop29" />
      <stop
         offset="0.79"
         stop-color="#0b7cf7"
         id="stop31" />
      <stop
         offset="1"
         stop-color="#087cfa"
         id="stop33" />
    </linearGradient>
    <linearGradient
       id="c"
       x1="80.809998"
       y1="283.37"
       x2="64.510002"
       y2="332.07001"
       gradientTransform="matrix(1,0,0,-1,0,342)"
       gradientUnits="userSpaceOnUse">
      <stop
         offset="0"
         stop-color="#fe315d"
         id="stop36" />
      <stop
         offset="0.08"
         stop-color="#cb417e"
         id="stop38" />
      <stop
         offset="0.16"
         stop-color="#9e4e9b"
         id="stop40" />
      <stop
         offset="0.25"
         stop-color="#755bb4"
         id="stop42" />
      <stop
         offset="0.34"
         stop-color="#5365ca"
         id="stop44" />
      <stop
         offset="0.44"
         stop-color="#386ddb"
         id="stop46" />
      <stop
         offset="0.54"
         stop-color="#2374e9"
         id="stop48" />
      <stop
         offset="0.66"
         stop-color="#1478f3"
         id="stop50" />
      <stop
         offset="0.79"
         stop-color="#0b7bf8"
         id="stop52" />
      <stop
         offset="1"
         stop-color="#087cfa"
         id="stop54" />
    </linearGradient>
    <linearGradient
       id="d"
       x1="23.469999"
       y1="312.20001"
       x2="72.360001"
       y2="231.33"
       gradientTransform="matrix(1,0,0,-1,0,342)"
       gradientUnits="userSpaceOnUse">
      <stop
         offset="0"
         stop-color="#fe315d"
         id="stop57" />
      <stop
         offset="0.04"
         stop-color="#f63462"
         id="stop59" />
      <stop
         offset="0.1"
         stop-color="#df3a71"
         id="stop61" />
      <stop
         offset="0.17"
         stop-color="#c24383"
         id="stop63" />
      <stop
         offset="0.29"
         stop-color="#ad4a91"
         id="stop65" />
      <stop
         offset="0.55"
         stop-color="#755bb4"
         id="stop67" />
      <stop
         offset="0.92"
         stop-color="#1d76ed"
         id="stop69" />
      <stop
         offset="1"
         stop-color="#087cfa"
         id="stop71" />
    </linearGradient>
  </defs>
  <title
     id="title76">Intelij_IDEA</title>
  <polygon
     class="a"
     points="21.8,39.7 48.1,50 31.1,71.4 12.7,56.8 "
     id="polygon78"
     style="fill:url(#a)"
     transform="translate(-11.8,-11.8)" />
  <polygon
     class="b"
     points="57.4,88.2 39.7,76.8 65.6,50 54.3,25.2 64.4,13 88.2,32.2 86.8,76.4 "
     id="polygon80"
     style="fill:url(#b)"
     transform="translate(-11.8,-11.8)" />
  <polygon
     class="c"
     points="54.3,25.2 64.4,13 88.2,32.2 64.9,59.7 "
     id="polygon82"
     style="fill:url(#c)"
     transform="translate(-11.8,-11.8)" />
  <polygon
     class="d"
     points="22.8,69.1 29.3,47.9 11.8,42 22.8,11.8 46.8,14.8 70.4,41.7 48.6,75.2 17.9,86.3 "
     id="polygon84"
     style="fill:url(#d)"
     transform="translate(-11.8,-11.8)" />
  <rect
     x="14.999999"
     y="14.7"
     width="47.099998"
     height="47.139999"
     id="rect86" />
  <rect
     class="e"
     x="19.300001"
     y="53.000004"
     width="17.700001"
     height="2.95"
     id="rect88" />
  <polygon
     class="e"
     points="34.1,32.6 34.1,36.3 36.9,36.3 36.9,48.6 34.1,48.6 34.1,52.2 43.9,52.2 43.9,48.6 41.2,48.6 41.2,36.3 43.9,36.3 43.9,32.6 "
     id="polygon90"
     transform="translate(-11.8,-11.8)" />
  <path
     class="e"
     d="m 41.5,40.7 a 6.9,6.9 0 0 1 -3.8,-0.9 10.6,10.6 0 0 1 -2.6,-2 l 2.8,-3.1 a 5,5 0 0 0 1.6,1.4 3.3,3.3 0 0 0 1.9,0.6 2.4,2.4 0 0 0 1.9,-0.8 3.4,3.4 0 0 0 0.7,-2.5 V 20.9 h 4.3 v 12.7 a 9.7,9.7 0 0 1 -0.4,3.1 7.4,7.4 0 0 1 -1.4,2.2 6.7,6.7 0 0 1 -2.2,1.3 8.2,8.2 0 0 1 -2.8,0.5"
     id="path92" />
</svg>
