<?xml version="1.0" encoding="UTF-8" standalone="no"?>
<svg
   height="80"
   width="80"
   xml:space="preserve"
   version="1.1"
   id="svg8"
   sodipodi:docname="Java-horz-wht.svg"
   inkscape:version="1.2 (dc2aeda, 2022-05-15)"
   xmlns:inkscape="http://www.inkscape.org/namespaces/inkscape"
   xmlns:sodipodi="http://sodipodi.sourceforge.net/DTD/sodipodi-0.dtd"
   xmlns="http://www.w3.org/2000/svg"
   xmlns:svg="http://www.w3.org/2000/svg"><defs
     id="defs12" /><sodipodi:namedview
     id="namedview10"
     pagecolor="#ffffff"
     bordercolor="#000000"
     borderopacity="0.25"
     inkscape:showpageshadow="2"
     inkscape:pageopacity="0.0"
     inkscape:pagecheckerboard="0"
     inkscape:deskcolor="#d1d1d1"
     showgrid="true"
     inkscape:zoom="4"
     inkscape:cx="36.875"
     inkscape:cy="77.375"
     inkscape:window-width="1390"
     inkscape:window-height="1027"
     inkscape:window-x="0"
     inkscape:window-y="25"
     inkscape:window-maximized="0"
     inkscape:current-layer="layer2"><inkscape:grid
       type="xygrid"
       id="grid14968"
       originx="-0.08533745"
       originy="-0.08536727" /></sodipodi:namedview><g
     inkscape:groupmode="layer"
     id="layer1"
     inkscape:label="Layer 1"
     transform="translate(-4.518837,39.981133)" /><g
     inkscape:groupmode="layer"
     id="layer2"
     inkscape:label="Layer 2"
     transform="translate(-4.518837,39.981133)"><circle
       style="fill:#396aa2;fill-opacity:1;stroke:none;stroke-width:0.151999;stroke-opacity:1"
       id="path14945"
       cx="44.518837"
       cy="0.018867493"
       r="40" /><g
       id="g14949"
       transform="translate(20,-36)"><path
         style="fill:#ffffff;fill-opacity:1;fill-rule:nonzero;stroke:none;stroke-width:0.13333"
         d="m 33.814805,46.768564 c -1.673825,0.473988 -5.444131,1.246902 -10.835596,1.246902 -5.291068,0 -9.614426,-0.90571 -9.627893,-1.97235 -0.0089,-0.709449 0.848912,-1.018775 0.848912,-1.018775 l -0.152662,-0.08853 c -2.53367,0.447855 -4.8873449,1.140105 -4.8737453,2.176479 0.023466,1.880753 7.2154193,3.293118 13.7949883,3.293118 5.593594,0 10.965859,-0.93851 13.389132,-2.16808 z m -17.880753,5.814388 c -1.175038,0.233861 -3.735907,0.821846 -3.735907,2.067148 0,1.725024 5.479063,3.046324 10.768531,3.046324 7.278485,0 10.25961,-1.872886 10.39454,-1.969817 l -3.026458,-1.75089 c -1.287034,0.306659 -3.455647,0.788514 -7.360749,0.788514 -4.358291,0 -7.19782,-0.746381 -7.19782,-1.563561 0,-0.173462 0.108397,-0.379191 0.310392,-0.529587 z m 29.742456,-11.60691 c -0.203595,3.906169 -3.812438,6.338375 -7.419548,8.393524 l 0.327059,0.188528 c 3.848837,-1.082773 10.716399,-4.235894 10.148679,-9.082573 -0.282793,-2.417139 -2.492071,-4.144163 -5.372265,-4.144163 -0.896911,0 -1.694758,0.158263 -2.341675,0.355191 l -0.002,0.0063 -0.13653,0.343725 c 2.576069,-0.504121 4.930143,1.377032 4.79628,3.939501 z M 22.867212,63.899336 c 10.12468,-0.088 21.453063,-2.069682 21.423864,-5.400399 -0.0052,-0.603584 -0.39839,-1.017041 -0.739981,-1.267034 l -0.16613,0.0952 C 42.448989,59.907302 34.53772,61.813521 22.850012,61.915519 15.308467,61.98125 4.8619285,60.174496 4.8436623,58.086548 4.8253961,55.993267 9.7924719,54.842896 9.7924719,54.842896 L 9.4415474,54.642367 C 6.1129639,55.100622 -0.02021606,56.694849 5.0099492e-5,58.996392 0.02924937,62.323909 14.124764,63.976001 22.867212,63.899336 Z m -1.053174,2.378074 c -4.024299,0.03547 -8.93831,-0.29786 -13.0720731,-0.992642 l -0.3827905,0.220261 c 4.1176306,1.207303 9.8502876,1.936485 16.1495966,1.88182 12.371157,-0.108398 22.40104,-3.176054 22.599435,-6.868095 l -0.143197,-0.08333 C 46.13583,61.447397 40.78503,66.111814 21.814038,66.27741 Z M 6.3160255,40.085398 c 0,-1.866087 7.0784895,-2.912994 10.3742735,-3.166588 l 0.314526,0.181729 c -1.266102,0.230261 -6.345708,1.126105 -6.345708,2.294743 0,1.272368 7.791005,2.106214 12.313292,2.106214 7.681008,0 12.902211,-1.162504 14.306442,-1.545828 l 1.964485,1.143305 c -1.3453,0.658783 -7.121156,2.385273 -16.270394,2.385273 -10.168545,0 -16.6569165,-1.98955 -16.6569165,-3.398848"
         id="path4" /><path
         style="fill:#ffffff;fill-opacity:1;fill-rule:nonzero;stroke:none;stroke-width:0.13333"
         d="m 37.044457,14.002717 -0.170262,-0.09733 c -3.092723,1.03584 -12.611685,4.79308 -12.611685,11.798638 0,3.962301 3.869103,6.156513 3.869103,9.872153 0,1.325434 -0.748381,2.568069 -1.357699,3.310851 l 0.306259,0.177062 c 1.61036,-1.046907 4.461755,-3.313517 4.461755,-6.239977 0,-2.478072 -3.430047,-5.455597 -3.430047,-8.640984 0,-5.019075 6.618101,-8.956976 8.932576,-10.180413 z M 32.371641,4.8206795 c 0,10.3684075 -14.208978,14.3360415 -14.208978,21.7077235 0,5.174938 3.431647,8.42019 5.33,10.471605 l -0.15413,0.08906 c -2.396873,-1.499429 -8.703382,-5.267469 -8.703382,-11.491846 0,-8.738315 16.320392,-12.913811 16.320392,-22.8395626 0,-1.2213028 -0.180796,-2.15727941 -0.307326,-2.66246678 L 30.813413,0 c 0.517054,0.64998375 1.558228,2.2748765 1.558228,4.8206795"
         id="path6" /></g></g></svg>
