<?xml version="1.0" encoding="UTF-8" standalone="no"?>
<svg
   width="138.54269"
   height="27.1971"
   viewBox="0 0 138.54269 27.1971"
   fill="none"
   version="1.1"
   id="svg12"
   sodipodi:docname="Specflow.svg"
   inkscape:version="1.2 (dc2aeda, 2022-05-15)"
   xmlns:inkscape="http://www.inkscape.org/namespaces/inkscape"
   xmlns:sodipodi="http://sodipodi.sourceforge.net/DTD/sodipodi-0.dtd"
   xmlns="http://www.w3.org/2000/svg"
   xmlns:svg="http://www.w3.org/2000/svg">
  <defs
     id="defs16" />
  <sodipodi:namedview
     id="namedview14"
     pagecolor="#ffffff"
     bordercolor="#000000"
     borderopacity="0.25"
     inkscape:showpageshadow="2"
     inkscape:pageopacity="0.0"
     inkscape:pagecheckerboard="0"
     inkscape:deskcolor="#d1d1d1"
     showgrid="false"
     inkscape:zoom="8.8368794"
     inkscape:cx="41.587079"
     inkscape:cy="-23.48114"
     inkscape:window-width="1390"
     inkscape:window-height="1027"
     inkscape:window-x="0"
     inkscape:window-y="25"
     inkscape:window-maximized="0"
     inkscape:current-layer="svg12" />
  <path
     d="m 36.027,16.558 c 0,1.4238 -0.5186,2.518 -1.5557,3.2827 -1.0371,0.7558 -2.5225,1.1338 -4.4561,1.1338 -1.9423,0 -3.5024,-0.2945 -4.6801,-0.8833 v -2.6763 c 1.7138,0.791 3.309,1.1865 4.7856,1.1865 1.9072,0 2.8608,-0.5757 2.8608,-1.727 0,-0.3692 -0.1054,-0.6768 -0.3164,-0.9229 C 32.4542,15.7054 32.107,15.4505 31.6236,15.1869 31.1402,14.9232 30.4679,14.6244 29.6065,14.2904 27.9278,13.64 26.7896,12.9896 26.192,12.3392 25.6031,11.6888 25.3087,10.8451 25.3087,9.808 c 0,-1.2481 0.501,-2.2149 1.5029,-2.9004 1.0108,-0.6944 2.3819,-1.0415 4.1133,-1.0415 1.7139,0 3.3355,0.3471 4.8647,1.0415 l -1.0019,2.3335 c -1.5732,-0.6504 -2.896,-0.9756 -3.9683,-0.9756 -1.6347,0 -2.4521,0.4658 -2.4521,1.3974 0,0.4571 0.2109,0.8438 0.6328,1.1602 0.4307,0.3164 1.3623,0.7515 2.7949,1.3052 1.2041,0.4658 2.0786,0.8921 2.6236,1.2788 0.5449,0.3867 0.9492,0.8349 1.2128,1.3447 0.2637,0.501 0.3956,1.103 0.3956,1.8062 z m 10.7578,4.4165 c -1.8457,0 -3.2784,-0.6636 -4.2979,-1.9908 h -0.1846 c 0.1231,1.2305 0.1846,1.9776 0.1846,2.2413 v 5.9721 H 39.3888 V 6.1297 h 2.5049 c 0.0703,0.2725 0.2153,0.9229 0.435,1.9512 h 0.1582 c 0.9668,-1.4765 2.417,-2.2148 4.3506,-2.2148 1.8193,0 3.2344,0.6592 4.2451,1.9775 1.0195,1.3184 1.5293,3.1685 1.5293,5.5503 0,2.3818 -0.5185,4.2407 -1.5556,5.5767 -1.0284,1.3359 -2.4522,2.0039 -4.2715,2.0039 z M 46.0333,8.3973 c -1.2305,0 -2.1313,0.3604 -2.7026,1.0811 -0.5625,0.7207 -0.8438,1.872 -0.8438,3.4541 v 0.4614 c 0,1.7754 0.2813,3.063 0.8438,3.8628 0.5625,0.791 1.4809,1.1865 2.7553,1.1865 1.0723,0 1.8985,-0.4394 2.4786,-1.3183 0.58,-0.8789 0.8701,-2.1314 0.8701,-3.7574 0,-1.6347 -0.2901,-2.8696 -0.8701,-3.7046 C 47.9933,8.8192 47.1495,8.3973 46.0333,8.3973 Z m 16.5454,12.5772 c -2.2676,0 -4.043,-0.6592 -5.3262,-1.9776 -1.2744,-1.3271 -1.9116,-3.1508 -1.9116,-5.4712 0,-2.3818 0.5933,-4.2539 1.7798,-5.6162 1.1865,-1.3623 2.8169,-2.0434 4.8911,-2.0434 1.9248,0 3.4453,0.5844 4.5615,1.7534 1.1163,1.1689 1.6744,2.7773 1.6744,4.8252 v 1.6743 h -9.7164 c 0.044,1.415 0.4263,2.5049 1.147,3.2695 0.7207,0.7559 1.7359,1.1338 3.0454,1.1338 0.8614,0 1.6612,-0.0791 2.3994,-0.2373 0.7471,-0.167 1.5469,-0.4394 2.3995,-0.8174 v 2.5181 c -0.7559,0.3604 -1.5205,0.6152 -2.294,0.7647 -0.7734,0.1494 -1.6567,0.2241 -2.6499,0.2241 z M 62.0118,8.2128 c -0.9844,0 -1.7754,0.312 -2.373,0.936 -0.5889,0.624 -0.9405,1.5337 -1.0547,2.729 h 6.6181 C 65.1847,10.6737 64.8946,9.764 64.3321,9.1488 63.7696,8.5248 62.9962,8.2128 62.0118,8.2128 Z m 15.6358,12.7617 c -2.2061,0 -3.8848,-0.6416 -5.0362,-1.9248 -1.1426,-1.292 -1.7138,-3.1421 -1.7138,-5.5503 0,-2.4522 0.5976,-4.3374 1.7929,-5.6558 1.2041,-1.3183 2.94,-1.9775 5.2075,-1.9775 1.5381,0 2.9224,0.2856 4.1529,0.8569 L 81.1148,9.2147 C 79.8053,8.7049 78.7242,8.4501 77.8717,8.4501 c -2.5225,0 -3.7837,1.6743 -3.7837,5.0229 0,1.6348 0.312,2.8652 0.936,3.6914 0.6328,0.8174 1.5557,1.2261 2.7686,1.2261 1.3799,0 2.685,-0.3428 3.9155,-1.0283 v 2.7026 c -0.5537,0.3252 -1.147,0.5581 -1.7798,0.6987 -0.624,0.1407 -1.3843,0.211 -2.2807,0.211 z M 92.4527,8.4764 H 88.8932 V 20.7108 H 85.7818 V 8.4764 H 83.3824 V 7.0262 L 85.7818,6.077 V 5.1278 c 0,-1.7227 0.4043,-2.9971 1.2129,-3.82325 0.8086,-0.83496 2.0435,-1.25244 3.7046,-1.25244 1.0899,0 2.1621,0.18017 3.2168,0.54053 L 93.0987,2.9393 C 92.3341,2.6932 91.6046,2.5702 90.9103,2.5702 c -0.7032,0 -1.2173,0.2197 -1.5425,0.6592 -0.3164,0.4306 -0.4746,1.081 -0.4746,1.9511 v 0.9492 h 3.5595 z m 5.5767,12.2344 H 94.9313 V 0.19713 h 3.0981 z m 17.3893,-7.3169 c 0,2.3818 -0.611,4.2407 -1.833,5.5767 -1.221,1.3359 -2.922,2.0039 -5.102,2.0039 -1.362,0 -2.566,-0.3076 -3.612,-0.9229 -1.046,-0.6152 -1.85,-1.4985 -2.413,-2.6499 -0.562,-1.1513 -0.843,-2.4873 -0.843,-4.0078 0,-2.3643 0.606,-4.21 1.819,-5.5371 1.213,-1.3272 2.922,-1.9907 5.128,-1.9907 2.11,0 3.78,0.6811 5.01,2.0434 1.231,1.3535 1.846,3.1817 1.846,5.4844 z m -10.613,0 c 0,3.3662 1.244,5.0493 3.731,5.0493 2.461,0 3.691,-1.6831 3.691,-5.0493 0,-3.331 -1.239,-4.9966 -3.717,-4.9966 -1.301,0 -2.246,0.4307 -2.835,1.292 -0.58,0.8613 -0.87,2.0962 -0.87,3.7046 z m 26.143,7.3169 -1.885,-6.8027 c -0.229,-0.7207 -0.642,-2.3951 -1.239,-5.023 h -0.119 c -0.51,2.3731 -0.914,4.0562 -1.213,5.0493 l -1.938,6.7764 h -3.428 l -4.087,-14.5811 h 3.165 l 1.858,7.1851 c 0.422,1.7754 0.721,3.2959 0.897,4.5615 h 0.079 c 0.088,-0.6416 0.22,-1.3755 0.395,-2.2016 0.185,-0.835 0.343,-1.459 0.475,-1.8721 l 2.215,-7.6729 h 3.401 l 2.149,7.6729 c 0.132,0.4307 0.295,1.0898 0.488,1.9775 0.202,0.8877 0.321,1.5777 0.356,2.0699 h 0.105 c 0.132,-1.0811 0.44,-2.5928 0.923,-4.5352 l 1.886,-7.1851 h 3.111 l -4.113,14.5811 z"
     fill="#574897"
     id="path2" />
  <path
     d="M 2.5167,23.6108 V 9.9711"
     stroke="#004c97"
     stroke-width="5"
     stroke-linecap="round"
     stroke-linejoin="round"
     id="path4" />
  <line
     x1="2.5"
     y1="23.6418"
     x2="15.896199"
     y2="13.1756"
     stroke="#574897"
     stroke-width="5"
     stroke-linecap="round"
     stroke-linejoin="round"
     id="line6" />
  <line
     x1="2.6323299"
     y1="2.5799997"
     x2="16.028502"
     y2="13.0462"
     stroke="#45b9d9"
     stroke-width="5"
     stroke-linecap="round"
     stroke-linejoin="round"
     id="line8" />
  <path
     d="M 2.5167,14.0108 V 2.5"
     stroke="#004c97"
     stroke-width="5"
     stroke-linecap="round"
     stroke-linejoin="round"
     id="path10" />
</svg>
